HIERARCHY
ROOT Bip001_Pelvis
{
  OFFSET 33.2923 95.8902 -28.781
  CHANNELS 6 Xposition Yposition Zposition Zrotation Xrotation Yrotation
  JOINT Bip001_Spine
  {
    OFFSET 1.4188e-005 10.2191 -0.0116013
    CHANNELS 3 Zrotation Xrotation Yrotation
    JOINT Bip001_L_Thigh
    {
      OFFSET 11.0458 -10.2192 0.0116197
      CHANNELS 3 Zrotation Xrotation Yrotation
      JOINT Bip001_L_Calf
      {
        OFFSET -0.707118 -44.0221 0.360014
        CHANNELS 3 Zrotation Xrotation Yrotation
        JOINT Bip001_L_Foot
        {
          OFFSET -0.651902 -40.5938 -3.56146
          CHANNELS 3 Zrotation Xrotation Yrotation
          JOINT Bip001_L_Toe0
          {
            OFFSET 0.0530839 -10.2181 13.1504
            CHANNELS 3 Zrotation Xrotation Yrotation
            End Site
            {
              OFFSET -1.02532e-005 0 7.55606
            }
          }
        }
      }
    }
    JOINT Bip001_R_Thigh
    {
      OFFSET -11.0458 -10.2191 0.0115893
      CHANNELS 3 Zrotation Xrotation Yrotation
      JOINT Bip001_R_Calf
      {
        OFFSET 0.706994 -44.0221 0.35984
        CHANNELS 3 Zrotation Xrotation Yrotation
        JOINT Bip001_R_Foot
        {
          OFFSET 0.651786 -40.5938 -3.5613
          CHANNELS 3 Zrotation Xrotation Yrotation
          JOINT Bip001_R_Toe0
          {
            OFFSET -0.0531479 -10.2181 13.1504
            CHANNELS 3 Zrotation Xrotation Yrotation
            End Site
            {
              OFFSET -1.02894e-005 0 7.55606
            }
          }
        }
      }
    }
    JOINT Bip001_Spine1
    {
      OFFSET 1.87041e-005 14.5736 1.08638
      CHANNELS 3 Zrotation Xrotation Yrotation
      JOINT Bip001_Spine2
      {
        OFFSET 2.24614e-005 14.5058 -1.69078
        CHANNELS 3 Zrotation Xrotation Yrotation
        JOINT Bip001_Neck
        {
          OFFSET 2.20278e-005 15.3945 -0.489414
          CHANNELS 3 Zrotation Xrotation Yrotation
          JOINT Bip001_L_Clavicle
          {
            OFFSET 6.06036 -0.000579998 0.00836775
            CHANNELS 3 Zrotation Xrotation Yrotation
            JOINT Bip001_L_UpperArm
            {
              OFFSET 11.5509 -0.0600302 0.00193952
              CHANNELS 3 Zrotation Xrotation Yrotation
              JOINT Bip001_L_Forearm
              {
                OFFSET 25.9523 0.0806089 -2.15551
                CHANNELS 3 Zrotation Xrotation Yrotation
                JOINT Bip001_L_Hand
                {
                  OFFSET 32.2476 0.153767 1.63968
                  CHANNELS 3 Zrotation Xrotation Yrotation
                  JOINT Bip001_L_Finger0
                  {
                    OFFSET 6.04639 -2.20976 5.90322
                    CHANNELS 3 Zrotation Xrotation Yrotation
                    End Site
                    {
                      OFFSET 4.22376 -1.43895 0.606486
                    }
                  }
                  JOINT Bip001_L_Finger1
                  {
                    OFFSET 11.0826 -0.704819 -0.198153
                    CHANNELS 3 Zrotation Xrotation Yrotation
                    End Site
                    {
                      OFFSET 6.20028 -0.397518 -0.0787166
                    }
                  }
                }
              }
            }
          }
          JOINT Bip001_R_Clavicle
          {
            OFFSET -6.06036 -0.000563197 0.00835105
            CHANNELS 3 Zrotation Xrotation Yrotation
            JOINT Bip001_R_UpperArm
            {
              OFFSET -11.5509 -0.0599978 0.00190698
              CHANNELS 3 Zrotation Xrotation Yrotation
              JOINT Bip001_R_Forearm
              {
                OFFSET -25.9523 0.080682 -2.1559
                CHANNELS 3 Zrotation Xrotation Yrotation
                JOINT Bip001_R_Hand
                {
                  OFFSET -32.2476 0.153858 1.63991
                  CHANNELS 3 Zrotation Xrotation Yrotation
                  JOINT Bip001_R_Finger0
                  {
                    OFFSET -6.04641 -2.20974 5.90321
                    CHANNELS 3 Zrotation Xrotation Yrotation
                    End Site
                    {
                      OFFSET -4.22376 -1.43894 0.606474
                    }
                  }
                  JOINT Bip001_R_Finger1
                  {
                    OFFSET -11.0826 -0.704789 -0.198184
                    CHANNELS 3 Zrotation Xrotation Yrotation
                    End Site
                    {
                      OFFSET -6.20028 -0.397501 -0.0787338
                    }
                  }
                }
              }
            }
          }
          JOINT Bip001_Head
          {
            OFFSET 1.09673e-005 11.2744 2.05948
            CHANNELS 3 Zrotation Xrotation Yrotation
            End Site
            {
              OFFSET 2.89576e-005 20.8808 -2.77728e-005
            }
          }
        }
      }
    }
  }
}
MOTION
Frames:	6
Frame Time:	0.04
32.0141 95.9086 -28.6605 1.10239 -1.40993 2.5615 -0.262604 3.13821 0.199182 4.82668 -2.9554 7.8095 -0.244636 6.49448 -14.0431 3.46508 -1.73803 -0.120413 -3.39694 -4.07207 5.19721 -3.18911 -3.37836 -0.532277 0.43053 11.3544 -0.547107 -6.05391 -10.0758 0.557695 1.93687 -6.92091 2.39463 -0.538541 6.27548 0.413795 -0.537245 6.27551 0.41386 0.563506 3.41167 -3.49028 -24.0349 -1.62178 -4.45992 -49.1534 40.738 -3.34967 11.9438 -1.33541 -25.0701 8.12533 1.21203 -1.58418 3.18055e-015 9.54166e-015 -1.59028e-015 3.18055e-015 1.27222e-014 -3.18055e-015 27.6252 5.60505 21.1845 43.573 19.3092 2.45637 -34.2329 -10.4249 60.1472 -30.1122 7.10206 12.4608 5.96354e-016 -3.32964e-015 -0 9.93923e-016 -1.26725e-015 -0 -0.623907 10.5554 -3.01941 
32.0338 95.9119 -28.6522 1.2249 -1.28685 2.71838 -0.277392 3.09433 0.214895 4.64467 -2.91271 7.81496 -0.154392 6.18985 -14.2197 3.39574 -1.58772 -0.118541 -3.399 -4.05807 5.21463 -3.34183 -3.464 -0.84821 0.446056 11.4706 -0.523331 -6.04159 -10.1865 0.666282 1.93149 -6.89155 2.38952 -0.567554 6.18756 0.445808 -0.567597 6.18756 0.445802 0.337352 3.2169 -3.37485 -23.8158 -1.40747 -4.41175 -49.1564 40.434 -3.44152 11.6843 -1.53074 -25.2912 8.46173 1.94025 -1.22991 1.76556e-031 -3.18055e-015 3.18055e-015 -0 0 3.18055e-015 27.3358 5.95279 21.9831 43.8199 13.8504 6.85885 -34.27 -10.128 66.68 -35.3356 6.88027 13.807 0 5.56597e-015 -0 -0 -3.97569e-016 -0 -0.31215 10.7557 -3.07268 
32.0468 95.9125 -28.7111 1.24015 -1.06867 3.33951 -0.261253 3.02241 0.140243 4.57007 -3.2797 7.06984 -0.0997848 6.30582 -14.0296 3.30619 -1.60183 -0.117789 -3.47314 -4.00579 5.28501 -3.43083 -3.55471 -1.41899 0.519181 11.5154 -0.36372 -6.1027 -10.1937 0.530652 1.93618 -6.91999 2.43282 -0.534052 6.04413 0.294383 -0.532522 6.04414 0.294785 0.0346094 3.1599 -3.23859 -23.5286 -1.33595 -4.34077 -49.267 40.1826 -3.39046 11.9953 -0.786845 -25.4034 8.66006 1.24179 -1.7382 3.18055e-015 0 -4.77083e-015 3.18055e-015 -3.18056e-015 -3.18055e-015 26.8785 6.05499 22.7134 44.6989 9.10017 11.5995 -35.0677 -8.46527 73.0967 -40.7602 6.55903 13.8122 0 3.97569e-015 -0 3.18055e-015 4.77083e-015 -0 0.0756234 10.7054 -3.15638 
32.0052 95.8982 -28.7445 1.01968 -1.03725 3.9085 -0.199658 2.98851 0.0794808 4.787 -3.68466 6.43893 -0.162696 6.83076 -13.9665 3.68956 -1.50664 -0.133499 -3.34366 -4.24442 5.17748 -3.23699 -3.33016 -1.80172 0.537489 11.1914 -0.297372 -6.19856 -10.0819 0.372979 1.94364 -6.92407 2.40053 -0.401724 5.97661 0.168056 -0.403127 5.97662 0.168804 -0.120793 3.09823 -3.15279 -23.4799 -1.2756 -4.25718 -49.2653 40.0544 -3.32041 12.0463 -0.683113 -25.5216 8.60442 1.02716 -1.84795 0 3.18055e-015 -0 3.18055e-015 3.18056e-015 1.59028e-015 26.1197 6.11867 23.4903 45.9657 5.03955 16.6502 -35.3271 -6.7325 78.3279 -46.099 6.51731 14.0051 -2.64834e-031 4.77083e-015 3.18055e-015 -7.06225e-031 6.36111e-015 6.36111e-015 0.247004 10.642 -3.17371 
32.1695 95.8984 -28.5917 1.56785 -1.37397 3.55724 -0.321156 3.05312 0.263494 4.0815 -2.75498 7.24344 0.189051 5.85192 -14.5992 3.41761 -1.27169 -0.132591 -3.33123 -4.15909 5.15885 -3.86677 -3.24234 -1.99172 0.655848 11.798 -0.319966 -6.10405 -10.5051 0.680795 1.95518 -6.98493 2.44677 -0.659061 6.10482 0.548711 -0.658262 6.10491 0.546997 -0.0936598 2.7527 -3.18462 -23.501 -0.92417 -4.25414 -49.2186 40.1383 -3.29328 12.0417 -0.64921 -25.5437 8.77022 0.914913 -1.82885 -6.36111e-015 9.54166e-015 -4.77083e-015 -3.18055e-015 6.36111e-015 -6.36111e-015 24.85 6.29038 23.9651 47.8112 2.18106 21.5986 -36.4828 -4.88049 82.8841 -51.47 6.74867 13.1729 3.18055e-015 -3.18055e-015 3.18055e-015 3.18055e-015 -6.36111e-015 3.18055e-015 0.292613 10.727 -3.20512 
32.0419 95.8986 -28.6179 1.33855 -1.21434 3.84201 -0.314629 3.02087 0.376492 4.47497 -3.1542 7.13245 0.0599947 6.23653 -14.8602 3.41666 -1.44365 -0.125941 -3.34358 -4.13601 5.18442 -3.50099 -3.21006 -1.83359 0.649519 11.4747 -0.394179 -6.23213 -10.2715 0.232658 1.95966 -7.01111 2.4563 -0.650874 6.04236 0.771067 -0.652192 6.04235 0.771099 -0.00701107 2.46702 -3.33468 -23.4775 -0.613108 -4.39961 -49.1535 40.3799 -3.28095 11.9825 -0.777214 -25.4163 8.90794 0.865924 -1.80887 3.18055e-015 -6.36111e-015 1.59028e-015 3.18055e-015 -9.54167e-015 3.18055e-015 23.0966 6.25089 24.4259 49.5824 0.934961 26.0215 -38.2859 -3.77318 86.4422 -56.5692 7.59548 12.6275 -3.18055e-015 -1.27222e-014 -0 -0 -3.18056e-015 -0 0.455331 10.8989 -3.37542 
